<?xml version="1.0" encoding="iso-8859-1"?>
<!-- Generator: Adobe Illustrator 19.0.0, SVG Export Plug-In . SVG Version: 6.00 Build 0)  -->
<svg version="1.1" id="Capa_1" xmlns="http://www.w3.org/2000/svg" xmlns:xlink="http://www.w3.org/1999/xlink" x="0px" y="0px"
	 viewBox="0 0 490 490" style="enable-background:new 0 0 490 490;" xml:space="preserve">
<g>
	<g>
		<g>
			<g>
				<path d="M209.088,370.2l3.1-15.6h-153.2c-5.4,0-10.1-4.3-10.1-10.1c0-5.4,4.3-10.1,10.1-10.1h157.5l10.9-53.7l134.9-134.9V0
					h-341.4v490l277.7-80.9l63.8,80.9V288.6l-63.8,63.8L209.088,370.2z M60.587,50.6h258.2c5.4,0,10.1,4.3,10.1,10.1
					c0,5.4-4.3,10.1-10.1,10.1h-258.2c-5.4,0-10.1-4.3-10.1-10.1C50.887,54.8,55.087,50.6,60.587,50.6z M60.587,145.5h258.2
					c5.4,0,10.1,4.3,10.1,10.1c0,5.4-4.3,10.1-10.1,10.1h-258.2c-5.4,0-10.1-4.3-10.1-10.1C50.887,149.7,55.087,145.5,60.587,145.5z
					 M58.987,239.9h170.7c5.4,0,10.1,4.3,10.1,10.1c0,5.4-4.3,10.1-10.1,10.1h-170.7c-5.4,0-10.1-4.3-10.1-10.1
					C49.287,244.6,53.587,239.9,58.987,239.9z"/>
				
					<rect x="350.164" y="146.799" transform="matrix(-0.7071 -0.7071 0.7071 -0.7071 439.4365 678.6159)" width="20.2" height="202.998"/>
				<path d="M466.188,142.3l-28.8-28.8c-3.9-3.9-10.1-3.9-14,0l-12.8,12.8l42.8,42.8l12.8-12.8
					C470.087,152.8,470.087,146.2,466.188,142.3z"/>
				<polygon points="234.788,344.9 276.787,336.4 243.288,302.9 				"/>
				
					<rect x="230.11" y="209.404" transform="matrix(0.7071 -0.7071 0.7071 0.7071 -58.0862 298.7743)" width="202.998" height="20.2"/>
			</g>
		</g>
		<polygon points="99.587,490 334.287,490 290.487,434.4 		"/>
	</g>
</g>
<g>
</g>
<g>
</g>
<g>
</g>
<g>
</g>
<g>
</g>
<g>
</g>
<g>
</g>
<g>
</g>
<g>
</g>
<g>
</g>
<g>
</g>
<g>
</g>
<g>
</g>
<g>
</g>
<g>
</g>
</svg>
